<?xml version="1.0" encoding="utf-8" standalone="no"?><!DOCTYPE svg PUBLIC "-//W3C//DTD SVG 20010904//EN" "http://www.w3.org/TR/2001/REC-SVG-20010904/DTD/svg10.dtd"><svg xmlns="http://www.w3.org/2000/svg" width="919" height="456" xmlns:xlink="http://www.w3.org/1999/xlink"><source><![CDATA[Felhasználó->Bejelentkezés: GET(login)
Bejelentkezés->Filmek: POST(login)
Filmek->Új film: GET(create-film)
Új film-->Filmek: POST(create-film)
Filmek->Megtekint: GET(id)
Megtekint->Szerkeszt: GET(id)
Szerkeszt-->Filmek: POST(id)
Megtekint->Törlés: GET(id)]]></source><desc></desc><defs><marker viewBox="0 0 5 5" markerWidth="5" markerHeight="5" orient="auto" refX="5" refY="2.5" id="markerArrowBlock"><path d="M 0 0 L 5 2.5 L 0 5 z"></path></marker><marker viewBox="0 0 9.6 16" markerWidth="4" markerHeight="16" orient="auto" refX="9.6" refY="8" id="markerArrowOpen"><path d="M 9.6,8 1.92,16 0,13.7 5.76,8 0,2.286 1.92,0 9.6,8 z"></path></marker></defs><g class="title"></g><g class="actor"><path d="M10,20C95.7,24.5 103.9,15.5 122.8,20.0C124.5,50.7 121.1,34.6 122.8,62.4C37.1,66.9 74.3,57.9 10.0,62.4C11.7,26.8 8.3,55.6 10.0,20.0" stroke="#000000" fill="#ffffff" style="stroke-width: 2;"></path><text x="20" y="46.7890625" style="font-size: 16px; font-family: danielbd;"><tspan x="20">Felhasználó</tspan></text></g><g class="actor"><path d="M10,394.328125C51.8,389.8 104.8,398.8 122.8,394.3C121.1,413.3 124.5,410.5 122.8,436.7C95.6,432.2 37.1,441.2 10.0,436.7C8.3,424.5 11.7,404.5 10.0,394.3" stroke="#000000" fill="#ffffff" style="stroke-width: 2;"></path><text x="20" y="421.1171875" style="font-size: 16px; font-family: danielbd;"><tspan x="20">Felhasználó</tspan></text></g><path d="M66.4,62.4C53.1,161.9 79.7,147.2 66.4,394.3" stroke="#000000" fill="none" style="stroke-width: 2;"></path><g class="actor"><path d="M142.828125,20C255.1,14.7 244.4,25.3 276.5,20.0C278.2,26.8 274.8,55.6 276.5,62.4C244.4,57.0 255.1,67.7 142.8,62.4C144.5,30.2 141.1,40.0 142.8,20.0" stroke="#000000" fill="#ffffff" style="stroke-width: 2;"></path><text x="153.625" y="43.59375" style="font-size: 16px; font-family: danielbd;"><tspan x="152.828125">Bejelentkezés</tspan></text></g><g class="actor"><path d="M142.828125,394.328125C164.4,389.0 252.0,399.7 276.5,394.3C274.8,407.9 278.2,417.8 276.5,436.7C228.3,431.4 225.9,442.1 142.8,436.7C144.5,404.7 141.1,416.4 142.8,394.3" stroke="#000000" fill="#ffffff" style="stroke-width: 2;"></path><text x="153.625" y="417.921875" style="font-size: 16px; font-family: danielbd;"><tspan x="152.828125">Bejelentkezés</tspan></text></g><path d="M209.6,62.4C196.4,115.5 222.9,313.3 209.6,394.3" stroke="#000000" fill="none" style="stroke-width: 2;"></path><g class="actor"><path d="M296.46875,20C336.6,17.0 352.2,23.0 370.8,20.0C372.5,52.1 369.1,48.5 370.8,62.4C310.6,59.4 314.3,65.4 296.5,62.4C298.2,40.6 294.8,26.9 296.5,20.0" stroke="#000000" fill="#ffffff" style="stroke-width: 2;"></path><text x="306.46875" y="46.390625" style="font-size: 16px; font-family: danielbd;"><tspan x="306.46875">Filmek</tspan></text></g><g class="actor"><path d="M296.46875,394.328125C314.3,397.3 313.4,391.4 370.8,394.3C372.5,407.3 369.1,426.5 370.8,436.7C308.4,433.7 339.1,439.7 296.5,436.7C298.2,410.9 294.8,429.9 296.5,394.3" stroke="#000000" fill="#ffffff" style="stroke-width: 2;"></path><text x="306.46875" y="420.71875" style="font-size: 16px; font-family: danielbd;"><tspan x="306.46875">Filmek</tspan></text></g><path d="M333.6,62.4C320.4,314.7 346.9,341.2 333.6,394.3" stroke="#000000" fill="none" style="stroke-width: 2;"></path><g class="actor"><path d="M468.5078125,20C535.6,16.8 506.3,23.2 548.4,20.0C546.7,47.8 550.1,30.0 548.4,62.4C500.5,59.2 508.6,65.6 468.5,62.4C470.2,54.0 466.8,26.8 468.5,20.0" stroke="#000000" fill="#ffffff" style="stroke-width: 2;"></path><text x="478.5078125" y="43.59375" style="font-size: 16px; font-family: danielbd;"><tspan x="478.5078125">Új film</tspan></text></g><g class="actor"><path d="M468.5078125,394.328125C487.7,391.1 529.2,397.5 548.4,394.3C550.1,411.2 546.7,411.4 548.4,436.7C529.0,439.9 529.2,433.5 468.5,436.7C466.8,429.9 470.2,407.7 468.5,394.3" stroke="#000000" fill="#ffffff" style="stroke-width: 2;"></path><text x="478.5078125" y="417.921875" style="font-size: 16px; font-family: danielbd;"><tspan x="478.5078125">Új film</tspan></text></g><path d="M508.5,62.4C521.7,266.5 495.2,115.5 508.5,394.3" stroke="#000000" fill="none" style="stroke-width: 2;"></path><g class="actor"><path d="M568.4296875,20C597.4,24.1 621.0,15.9 670.1,20.0C668.5,39.7 671.8,55.6 670.1,62.4C645.7,58.3 608.6,66.5 568.4,62.4C570.1,44.9 566.7,30.2 568.4,20.0" stroke="#000000" fill="#ffffff" style="stroke-width: 2;"></path><text x="578.4296875" y="43.59375" style="font-size: 16px; font-family: danielbd;"><tspan x="578.4296875">Megtekint</tspan></text></g><g class="actor"><path d="M568.4296875,394.328125C621.6,390.3 653.9,398.4 670.1,394.3C668.5,412.3 671.8,404.5 670.1,436.7C605.8,432.6 590.7,440.8 568.4,436.7C570.1,414.4 566.7,419.1 568.4,394.3" stroke="#000000" fill="#ffffff" style="stroke-width: 2;"></path><text x="578.4296875" y="417.921875" style="font-size: 16px; font-family: danielbd;"><tspan x="578.4296875">Megtekint</tspan></text></g><path d="M619.3,62.4C606.0,168.1 632.6,289.3 619.3,394.3" stroke="#000000" fill="none" style="stroke-width: 2;"></path><g class="actor"><path d="M690.1484375,20C723.6,15.7 721.9,24.3 798.8,20.0C800.5,47.1 797.1,36.3 798.8,62.4C772.7,58.0 776.8,66.7 690.1,62.4C691.8,39.3 688.5,51.8 690.1,20.0" stroke="#000000" fill="#ffffff" style="stroke-width: 2;"></path><text x="700.9453125" y="45.9921875" style="font-size: 16px; font-family: danielbd;"><tspan x="700.1484375">Szerkeszt</tspan></text></g><g class="actor"><path d="M690.1484375,394.328125C734.6,398.7 744.0,390.0 798.8,394.3C797.1,409.8 800.5,426.5 798.8,436.7C748.0,432.4 741.5,441.1 690.1,436.7C688.5,429.9 691.8,411.8 690.1,394.3" stroke="#000000" fill="#ffffff" style="stroke-width: 2;"></path><text x="700.9453125" y="420.3203125" style="font-size: 16px; font-family: danielbd;"><tspan x="700.1484375">Szerkeszt</tspan></text></g><path d="M744.5,62.4C757.8,187.5 731.2,142.1 744.5,394.3" stroke="#000000" fill="none" style="stroke-width: 2;"></path><g class="actor"><path d="M818.8203125,20C848.1,22.8 870.5,17.2 890.0,20.0C888.3,51.5 891.7,49.2 890.0,62.4C878.6,59.5 864.3,65.2 818.8,62.4C820.5,35.4 817.1,30.2 818.8,20.0" stroke="#000000" fill="#ffffff" style="stroke-width: 2;"></path><text x="828.8203125" y="46.390625" style="font-size: 16px; font-family: danielbd;"><tspan x="828.8203125">Törlés</tspan></text></g><g class="actor"><path d="M818.8203125,394.328125C859.2,391.5 830.2,397.2 890.0,394.3C891.7,429.9 888.3,401.1 890.0,436.7C869.2,433.9 877.6,439.6 818.8,436.7C817.1,429.9 820.5,403.1 818.8,394.3" stroke="#000000" fill="#ffffff" style="stroke-width: 2;"></path><text x="828.8203125" y="420.71875" style="font-size: 16px; font-family: danielbd;"><tspan x="828.8203125">Törlés</tspan></text></g><path d="M854.4,62.4C867.7,341.2 841.1,172.3 854.4,394.3" stroke="#000000" fill="none" style="stroke-width: 2;"></path><g class="signal"><text x="92.8046875" y="90.1875" style="font-size: 16px; font-family: danielbd;"><tspan x="92.0078125">GET(login)</tspan></text><path d="M66.4,105.6C103.8,99.8 151.5,111.3 209.6,105.6" stroke="#000000" fill="none" style="stroke-width: 2; marker-end: url(&quot;#markerArrowBlock&quot;);"></path></g><g class="signal"><text x="223.26171875" y="133.375" style="font-size: 16px; font-family: danielbd;"><tspan x="223.26171875">POST(login)</tspan></text><path d="M209.6,148.8C285.1,153.7 283.0,143.8 333.6,148.8" stroke="#000000" fill="none" style="stroke-width: 2; marker-end: url(&quot;#markerArrowBlock&quot;);"></path></g><g class="signal"><text x="346.796875" y="179.359375" style="font-size: 16px; font-family: danielbd;"><tspan x="346">GET(create-film)</tspan></text><path d="M333.6,186.4C480.5,179.4 466.5,193.4 508.5,186.4" stroke="#000000" fill="none" style="stroke-width: 2; marker-end: url(&quot;#markerArrowBlock&quot;);"></path></g><g class="signal"><text x="343.640625" y="216.953125" style="font-size: 16px; font-family: danielbd;"><tspan x="343.640625">POST(create-film)</tspan></text><path d="M508.5,224.0C450.7,217.0 480.5,230.9 333.6,224.0" stroke="#000000" fill="none" style="stroke-width: 2; stroke-dasharray: 6, 2; marker-end: url(&quot;#markerArrowBlock&quot;);"></path></g><g class="signal"><text x="440.98046875" y="254.546875" style="font-size: 16px; font-family: danielbd;"><tspan x="440.18359375">GET(id)</tspan></text><path d="M333.6,261.5C474.1,250.1 461.1,273.0 619.3,261.5" stroke="#000000" fill="none" style="stroke-width: 2; marker-end: url(&quot;#markerArrowBlock&quot;);"></path></g><g class="signal"><text x="646.40234375" y="292.140625" style="font-size: 16px; font-family: danielbd;"><tspan x="645.60546875">GET(id)</tspan></text><path d="M619.3,299.1C714.4,304.1 724.5,294.1 744.5,299.1" stroke="#000000" fill="none" style="stroke-width: 2; marker-end: url(&quot;#markerArrowBlock&quot;);"></path></g><g class="signal"><text x="500.421875" y="329.734375" style="font-size: 16px; font-family: danielbd;"><tspan x="500.421875">POST(id)</tspan></text><path d="M744.5,336.7C432.2,353.2 645.9,320.3 333.6,336.7" stroke="#000000" fill="none" style="stroke-width: 2; stroke-dasharray: 6, 2; marker-end: url(&quot;#markerArrowBlock&quot;);"></path></g><g class="signal"><text x="701.35546875" y="367.328125" style="font-size: 16px; font-family: danielbd;"><tspan x="700.55859375">GET(id)</tspan></text><path d="M619.3,374.3C728.4,364.9 798.0,383.7 854.4,374.3" stroke="#000000" fill="none" style="stroke-width: 2; marker-end: url(&quot;#markerArrowBlock&quot;);"></path></g></svg>